# xmcd
#
# Track frame offsets: 
#        150
#        15976
#        32426
#        45476
#        60968
#        85467
#        100263
#        118648
#        140380
#        156767
#        179374
#
# Disc length: 2693 seconds
#
# Revision: 0
# Processed by: cddbd v1.5.2PL0 Copyright (c) Steve Scherf et al.
# Submitted via: ExactAudioCopy v1.1
#
DISCID=7d0a830b
DTITLE=Hans Theessink - Call Me
DYEAR=1992
DGENRE=Blues
TTITLE0=Late Last Night
TTITLE1=Call Me
TTITLE2=Mabellene
TTITLE3=Lonely Days and Lonely Nights
TTITLE4=Soul Of Song
TTITLE5=Roch The Boat
TTITLE6=New Orleans
TTITLE7=The Planet
TTITLE8=Bluesdoctor
TTITLE9=Cuckoo
TTITLE10=Sail On
EXTD=
EXTT0=
EXTT1=
EXTT2=
EXTT3=
EXTT4=
EXTT5=
EXTT6=
EXTT7=
EXTT8=
EXTT9=
EXTT10=
PLAYORDER=
